<svg id="Layer_1" data-name="Layer 1" xmlns="http://www.w3.org/2000/svg" viewBox="0 0 90.26 74.27"><defs><style>.cls-1{fill:#a2a4a5;}.cls-2{fill:#ddd;}.cls-3{fill:#c8c8ca;}.cls-4{fill:#e6e7e8;}.cls-5{fill:#cdd1d3;}.cls-6{fill:#e5e5e5;}.cls-7{fill:#3a9e32;}.cls-8{fill:#43b83a;}.cls-9{fill:#fff;}</style></defs><title>bl</title><rect class="cls-1" x="13.08" y="30.98" width="60.37" height="36.78"/><polygon class="cls-2" points="79.84 29.13 43.27 0 6.18 29.52 6.18 30.89 79.84 30.9 79.84 29.13"/><polygon class="cls-3" points="71.68 26.86 43.21 4.19 14.34 27.17 14.34 28.23 71.68 28.24 71.68 26.86"/><rect class="cls-2" x="11.65" y="32.58" width="3.54" height="30.82"/><rect class="cls-4" x="15.18" y="32.58" width="4.06" height="30.82"/><rect class="cls-4" x="10.13" y="63.41" width="5.05" height="4.07"/><rect class="cls-2" x="15.19" y="63.41" width="5.8" height="4.07"/><rect class="cls-4" x="28.69" y="63.41" width="5.05" height="4.07"/><rect class="cls-2" x="33.75" y="63.41" width="5.8" height="4.07"/><rect class="cls-4" x="47.24" y="63.41" width="5.05" height="4.07"/><rect class="cls-2" x="52.3" y="63.41" width="5.8" height="4.07"/><rect class="cls-4" x="65.79" y="63.41" width="5.05" height="4.07"/><rect class="cls-2" x="70.85" y="63.41" width="5.8" height="4.07"/><rect class="cls-4" x="11.3" y="30.9" width="7.72" height="3.01"/><ellipse class="cls-5" cx="10.34" cy="32.41" rx="2.41" ry="2.43"/><ellipse class="cls-4" cx="10.34" cy="32.41" rx="1.41" ry="1.42"/><ellipse class="cls-5" cx="20.54" cy="32.41" rx="2.41" ry="2.43"/><ellipse class="cls-4" cx="20.54" cy="32.41" rx="1.41" ry="1.42"/><rect class="cls-2" x="30.2" y="32.58" width="3.54" height="30.82"/><rect class="cls-4" x="33.73" y="32.58" width="4.05" height="30.82"/><rect class="cls-4" x="29.85" y="30.9" width="7.72" height="3.01"/><ellipse class="cls-5" cx="28.89" cy="32.41" rx="2.41" ry="2.43"/><ellipse class="cls-4" cx="28.89" cy="32.41" rx="1.41" ry="1.42"/><ellipse class="cls-5" cx="39.09" cy="32.41" rx="2.41" ry="2.43"/><ellipse class="cls-4" cx="39.09" cy="32.41" rx="1.41" ry="1.42"/><rect class="cls-2" x="48.75" y="32.58" width="3.54" height="30.82"/><rect class="cls-4" x="52.28" y="32.58" width="4.05" height="30.82"/><rect class="cls-4" x="48.4" y="30.9" width="7.72" height="3.01"/><ellipse class="cls-5" cx="47.44" cy="32.41" rx="2.41" ry="2.43"/><ellipse class="cls-4" cx="47.44" cy="32.41" rx="1.41" ry="1.42"/><ellipse class="cls-5" cx="57.64" cy="32.41" rx="2.41" ry="2.43"/><ellipse class="cls-4" cx="57.64" cy="32.41" rx="1.41" ry="1.42"/><rect class="cls-2" x="67.3" y="32.58" width="3.54" height="30.82"/><rect class="cls-4" x="70.83" y="32.58" width="4.05" height="30.82"/><rect class="cls-4" x="66.95" y="30.9" width="7.72" height="3.01"/><ellipse class="cls-5" cx="65.99" cy="32.41" rx="2.41" ry="2.43"/><ellipse class="cls-4" cx="65.99" cy="32.41" rx="1.41" ry="1.42"/><ellipse class="cls-5" cx="76.19" cy="32.41" rx="2.41" ry="2.43"/><ellipse class="cls-4" cx="76.19" cy="32.41" rx="1.41" ry="1.42"/><polygon class="cls-2" points="5.67 67.48 5.67 68.57 5.67 69.75 80.87 69.75 80.87 68.57 80.87 67.48 5.67 67.48"/><polygon class="cls-6" points="2.62 69.75 2.62 70.84 2.62 72.01 83.91 72.01 83.91 70.84 83.91 69.75 2.62 69.75"/><polygon class="cls-2" points="0 72.01 0 73.1 0 74.27 86.53 74.27 86.53 73.1 86.53 72.01 0 72.01"/><path class="cls-2" d="M40.41,35.83c0,1.59-1.26,2.08-3,2.08H35.24V30.67h1.88c1.85,0,3,.52,3,1.84a1.57,1.57,0,0,1-1.33,1.56C39.59,34.23,40.41,34.62,40.41,35.83Zm-3.8-2.18h.84c.75,0,1.24-.33,1.24-1s-.5-.94-1.44-.94h-.65ZM39,35.77c0-.87-.61-1.16-1.41-1.16h-.95v2.26h.8C38.32,36.87,39,36.69,39,35.77Z" transform="translate(-4.39 -13)"/><path class="cls-2" d="M42.39,36.23l-.45,1.68H40.52l2.24-7.24h1.7l2.23,7.24H45.22l-.45-1.68Zm1.19-4.5-.92,3.46h1.83Z" transform="translate(-4.39 -13)"/><path class="cls-2" d="M51,37.91l-2.47-5.85a23.19,23.19,0,0,1,.19,2.9v3H47.48V30.67h1.74l2.51,5.86a18,18,0,0,1-.19-2.47V30.67h1.25v7.24Z" transform="translate(-4.39 -13)"/><path class="cls-2" d="M54.47,37.91V30.67h1.37v7.24Zm5.61,0H58.44L55.91,34l2.49-3.37h1.49L57.39,34Z" transform="translate(-4.39 -13)"/><path class="cls-7" d="M63.9,35.08A15.43,15.43,0,0,0,79.28,50.56v-31A15.43,15.43,0,0,0,63.9,35.08Z" transform="translate(-4.39 -13)"/><path class="cls-8" d="M79.28,19.59v31a15.48,15.48,0,0,0,0-31Z" transform="translate(-4.39 -13)"/><path class="cls-8" d="M66.42,35.08A12.91,12.91,0,0,0,79.28,48V22.12A12.91,12.91,0,0,0,66.42,35.08Z" transform="translate(-4.39 -13)"/><path class="cls-7" d="M79.28,22.12V48a13,13,0,0,0,0-25.9Z" transform="translate(-4.39 -13)"/><path class="cls-9" d="M70.38,30.58c0-1.65.73-2.63,2.69-2.63h2a2.32,2.32,0,0,1,2.65,2.63v2.2c0,1.65-.73,2.63-2.69,2.63H73a2.32,2.32,0,0,1-2.65-2.63ZM73.51,33h1c.66,0,.75-.35.75-.78v-1c0-.64-.23-.78-.71-.78h-1c-.43,0-.75.12-.75.78v1C72.8,32.62,72.87,33,73.51,33Zm8.89-5h2.4L76.16,42.2H73.63Zm-1.51,9.36c0-1.65.71-2.63,2.67-2.63h2a2.32,2.32,0,0,1,2.65,2.63v2.2c0,1.65-.73,2.63-2.69,2.63h-2a2.3,2.3,0,0,1-2.63-2.63ZM84,39.71h1c.66,0,.77-.35.77-.78v-1c0-.64-.25-.78-.73-.78h-1c-.43,0-.75.12-.75.78v1C83.31,39.36,83.38,39.71,84,39.71Z" transform="translate(-4.39 -13)"/></svg>