<svg id="Layer_1" data-name="Layer 1" xmlns="http://www.w3.org/2000/svg" viewBox="0 0 93.54 74.54"><defs><style>.cls-1{fill:#e6e7e8;}.cls-2{fill:#eb965f;}.cls-3{fill:#e1803a;}.cls-4{fill:#313c3b;}.cls-5{fill:#ed313e;}.cls-6{fill:#008ee5;}.cls-7{fill:#f2f4f3;}.cls-8{fill:#69daf4;}.cls-9{fill:#c52026;}.cls-10{fill:#fff;}.cls-11{fill:#e08038;}.cls-12{fill:#f6ae7e;}.cls-13{fill:#26267f;}.cls-14{fill:#1c1e1e;}.cls-15{fill:#96520f;}.cls-16{fill:#d17d30;}.cls-17{fill:#ffc700;}.cls-18{fill:#fff039;}.cls-19{fill:#999090;}.cls-20{fill:#545252;}.cls-21{fill:#898888;}.cls-22{fill:#2d2d2d;}.cls-23{fill:#8ac133;}.cls-24{fill:#53770c;}.cls-25{fill:#61a30a;}</style></defs><title>cl</title><path class="cls-1" d="M28.18,47.26S32.41,62,36,65.3c0,0,2.14-14.37,2.33-18Z" transform="translate(-3.23 -12.73)"/><rect class="cls-2" x="27.39" y="26.58" width="5.54" height="8.15"/><path class="cls-3" d="M36.16,40.55v2.86l-.26.48a13.63,13.63,0,0,1-5.28-2V40.43Z" transform="translate(-3.23 -12.73)"/><polygon class="cls-4" points="35.24 52.76 33.45 56.82 30.52 53.18 30.43 37.03 31.91 36.9 35.24 52.76"/><polygon class="cls-5" points="35.24 52.76 34.51 54.42 32.53 55.68 31.84 54.82 35.22 52.67 35.24 52.76"/><polygon class="cls-4" points="29.38 36.1 31.54 38.36 32.59 35.82 31.03 34.78 29.38 36.1"/><path class="cls-6" d="M21.82,49.28l3.33,18.46-.76,14.39c-.46.29,18.81.16,21.86-3.9l-2-9.82L45.43,50a3.26,3.26,0,0,0-2.22-3.31c-1.64-.55-3.8-1.24-5.43-1.62L36,65.3,29,45.24,23.24,47a2,2,0,0,0-1.42,2.29Z" transform="translate(-3.23 -12.73)"/><path class="cls-7" d="M30.6,43.82,29,45.24,29.79,48a10.35,10.35,0,0,0,2.64,2l1.83-2.53S31,45,30.6,43.82Z" transform="translate(-3.23 -12.73)"/><path class="cls-7" d="M36.16,44.09l1.63,1L37.65,48s-.88,1.08-1.56,2L34.26,47.5s2.17-1.85,1.9-3.42Z" transform="translate(-3.23 -12.73)"/><path class="cls-8" d="M37.78,45.07l2.27.62.64,6.53-1.46.61L40.7,54,36,65.3l1.74-20.23Z" transform="translate(-3.23 -12.73)"/><polygon class="cls-8" points="25.74 32.51 23.51 33.2 24.38 40.17 26.48 40.53 25.1 41.94 32.81 52.57 25.74 32.51"/><path class="cls-4" d="M43.74,26.07S43.3,31.77,39,33.53l0-6.37Z" transform="translate(-3.23 -12.73)"/><path class="cls-2" d="M39.62,33.94V28.55H27.08L26,33s.39,9.13,8.28,9.19a5.43,5.43,0,0,0,3.25-1c1.5-1.09,3.07-3.24,2.12-7.25Z" transform="translate(-3.23 -12.73)"/><path class="cls-9" d="M37.26,38.09A2.34,2.34,0,0,1,33.08,38a14.52,14.52,0,0,0,2.38.18,15.59,15.59,0,0,0,1.79-.1Z" transform="translate(-3.23 -12.73)"/><path class="cls-4" d="M36.94,20.43C29.4,18.64,19.78,25.09,25.8,34.27h1.09a.9.9,0,0,0,.9-1c-.19-2.51.71-3.71,1.76-4.27A6.79,6.79,0,0,1,31,28.55h8.62c5.29,0,4.94-6.46,4.94-6.46-2.26,0-5.58-1.17-7.62-1.66Z" transform="translate(-3.23 -12.73)"/><path class="cls-10" d="M37.47,37.52a2.29,2.29,0,0,1-.22.58,15.59,15.59,0,0,1-1.79.1A14.52,14.52,0,0,1,33.08,38a2.36,2.36,0,0,1-.17-.49Z" transform="translate(-3.23 -12.73)"/><path class="cls-11" d="M35.74,33.65a4.54,4.54,0,0,0,.78,1.26c.22.23,1.24.75.35,1.27a2.29,2.29,0,0,1-1.14.23c1.43-.93-.19-1,0-2.75Z" transform="translate(-3.23 -12.73)"/><path class="cls-2" d="M57.9,27.25l0,.44L61.58,29a6.23,6.23,0,0,0,1.64-4.45l-3.75-1.45L58.2,24.46Z" transform="translate(-3.23 -12.73)"/><rect class="cls-2" x="58.39" y="27.31" width="1.99" height="3.96" transform="translate(8.53 62.57) rotate(-70.28)"/><path class="cls-3" d="M60.08,24.07c-.22.61-1.29.22-1.07-.38l.69-1.93c.21-.6,1.29-.23,1.07.38Z" transform="translate(-3.23 -12.73)"/><path class="cls-3" d="M62.05,25.32c-.22.61-1.29.22-1.07-.38L61.68,23c.22-.6,1.29-.23,1.07.38Z" transform="translate(-3.23 -12.73)"/><path class="cls-3" d="M63,25.81c-.2.56-1.17.2-1-.35l.56-1.56c.2-.55,1.18-.21,1,.35Z" transform="translate(-3.23 -12.73)"/><path class="cls-3" d="M61.06,24.71c-.22.61-1.29.22-1.07-.38l.69-1.93c.21-.6,1.29-.23,1.07.38Z" transform="translate(-3.23 -12.73)"/><path class="cls-12" d="M57.9,27.25,57.28,25a1.65,1.65,0,0,1,.44-1.63l.92-.89a.78.78,0,0,1,.8-.17l1.39.5a.35.35,0,0,1,.19.5c-.5.86-1.6.28-1.6.28l-.68.61a3,3,0,0,1,.92.67c1.26,1.33,1,3.1-.61,2.79a3.61,3.61,0,0,1-1.15-.45Z" transform="translate(-3.23 -12.73)"/><rect class="cls-1" x="57.69" y="28.04" width="2.66" height="4.3" transform="translate(5.88 61.1) rotate(-68.26)"/><path class="cls-6" d="M40.06,45.69l2,.07,10.29-2.62,4.1-13.62s3.81.8,5.18,2.1c0,0-3.13,9.7-4.34,14.11A2.9,2.9,0,0,1,56,47.45,138.69,138.69,0,0,1,42.09,54Z" transform="translate(-3.23 -12.73)"/><path class="cls-2" d="M8.9,27.48l0,.44L5.22,29.26a6.23,6.23,0,0,1-1.64-4.45l3.75-1.46L8.6,24.69Z" transform="translate(-3.23 -12.73)"/><rect class="cls-2" x="5.44" y="28.53" width="3.96" height="1.99" transform="translate(-12.76 -8.49) rotate(-19.72)"/><path class="cls-3" d="M6.71,24.3c.22.61,1.29.22,1.07-.38L7.09,22c-.21-.6-1.29-.23-1.07.38Z" transform="translate(-3.23 -12.73)"/><path class="cls-3" d="M4.74,25.55c.22.61,1.29.22,1.07-.38l-.69-1.93c-.21-.6-1.29-.23-1.07.38Z" transform="translate(-3.23 -12.73)"/><path class="cls-3" d="M3.82,26c.2.56,1.17.2,1-.35l-.56-1.56c-.2-.55-1.18-.21-1,.35Z" transform="translate(-3.23 -12.73)"/><path class="cls-3" d="M5.73,24.94c.22.61,1.29.22,1.07-.38l-.69-1.93C5.9,22,4.82,22.39,5,23Z" transform="translate(-3.23 -12.73)"/><path class="cls-12" d="M8.9,27.48l.61-2.21a1.65,1.65,0,0,0-.44-1.63l-.92-.89a.78.78,0,0,0-.8-.17L6,23.08a.35.35,0,0,0-.19.5c.5.86,1.6.28,1.6.28l.68.61a3.05,3.05,0,0,0-.92.67c-1.26,1.33-1,3.1.61,2.79a3.62,3.62,0,0,0,1.15-.45Z" transform="translate(-3.23 -12.73)"/><rect class="cls-1" x="5.62" y="29.09" width="4.3" height="2.66" transform="translate(-13.95 -7.68) rotate(-21.74)"/><path class="cls-6" d="M26.74,45.92l-2,.07L14.46,43.37l-4.1-13.62s-3.81.8-5.18,2.1c0,0,3.13,9.7,4.34,14.11a2.9,2.9,0,0,0,1.3,1.72,138.63,138.63,0,0,0,13.89,6.56Z" transform="translate(-3.23 -12.73)"/><path class="cls-2" d="M26.88,33.34c-1.42-1.22-2.47.27-.8,2.83,0,0-.13.84,1.07.84Z" transform="translate(-3.23 -12.73)"/><path class="cls-10" d="M39.48,32.77c0,.13-1,1-2.59.45C36.92,32.19,39.1,31.63,39.48,32.77Z" transform="translate(-3.23 -12.73)"/><path class="cls-13" d="M39,32.78a.77.77,0,0,1-.18.49,2.48,2.48,0,0,1-1.1.14.79.79,0,0,1-.31-.63.77.77,0,0,1,.1-.39,1.89,1.89,0,0,1,1.18-.23A.79.79,0,0,1,39,32.78Z" transform="translate(-3.23 -12.73)"/><circle class="cls-10" cx="35.33" cy="19.89" r="0.16"/><circle class="cls-14" cx="34.96" cy="20.11" r="0.38"/><path class="cls-10" d="M31,32.83c0,.13,1,1,2.59.45C33.58,32.24,31.39,31.69,31,32.83Z" transform="translate(-3.23 -12.73)"/><path class="cls-13" d="M31.51,32.84a.78.78,0,0,0,.17.49,2.5,2.5,0,0,0,1.1.14.79.79,0,0,0,.32-.63.77.77,0,0,0-.11-.39,1.89,1.89,0,0,0-1.18-.23A.79.79,0,0,0,31.51,32.84Z" transform="translate(-3.23 -12.73)"/><circle class="cls-10" cx="28.7" cy="19.95" r="0.16"/><circle class="cls-14" cx="29.07" cy="20.17" r="0.38"/><path class="cls-4" d="M34.11,34.54H30.32a.74.74,0,0,1-.74-.74V31.88a.74.74,0,0,1,.74-.74h3.79a.74.74,0,0,1,.74.74V33.8A.74.74,0,0,1,34.11,34.54Zm-3.79-2.67V33.8h3.79V31.88Z" transform="translate(-3.23 -12.73)"/><path class="cls-4" d="M40.81,34.54H37a.74.74,0,0,1-.74-.74V31.88a.74.74,0,0,1,.74-.74h3.79a.74.74,0,0,1,.74.74V33.8A.74.74,0,0,1,40.81,34.54ZM37,31.88V33.8h3.79V31.88Z" transform="translate(-3.23 -12.73)"/><rect class="cls-4" x="31.25" y="19.39" width="2.12" height="0.65"/><rect class="cls-15" x="11.73" y="58.11" width="81.81" height="6.04"/><rect class="cls-16" x="18.45" y="64.15" width="69.48" height="10.39"/><circle class="cls-17" cx="75.3" cy="31.5" r="3.49" transform="translate(15.82 77.91) rotate(-69.14)"/><path class="cls-18" d="M76.18,31.82a1.37,1.37,0,0,0-.54-.52l-.27-.17a.84.84,0,0,1-.25-.22.21.21,0,0,1,0-.2.24.24,0,0,1,.2-.17.82.82,0,0,1,.4.07,1.82,1.82,0,0,1,.38.2,2.68,2.68,0,0,1,.38.32l.22-.57a4.39,4.39,0,0,0-.45-.29l-.13-.07.12-.32-.52-.2-.12.31a1.07,1.07,0,0,0-.62,0,.82.82,0,0,0-.5.52.75.75,0,0,0,0,.59,1.24,1.24,0,0,0,.49.5l.25.16a.9.9,0,0,1,.28.25.28.28,0,0,1-.2.4.71.71,0,0,1-.38-.06,1.83,1.83,0,0,1-.44-.25,2.77,2.77,0,0,1-.42-.4l-.22.59a3.4,3.4,0,0,0,.46.34l.25.14-.12.31.52.2L75,33a1.11,1.11,0,0,0,.62,0,.87.87,0,0,0,.52-.57A.75.75,0,0,0,76.18,31.82Z" transform="translate(-3.23 -12.73)"/><circle class="cls-17" cx="76.92" cy="44.16" r="3.49" transform="translate(-7.51 67.13) rotate(-53.59)"/><path class="cls-18" d="M77.48,43.4a1.38,1.38,0,0,0-.64.38l-.24.22a.84.84,0,0,1-.28.19.21.21,0,0,1-.2,0A.24.24,0,0,1,76,43.9a.81.81,0,0,1,.18-.36,1.82,1.82,0,0,1,.3-.31,2.7,2.7,0,0,1,.41-.28l-.49-.36a4.35,4.35,0,0,0-.4.36l-.1.11-.27-.2-.33.45.27.2a1.07,1.07,0,0,0-.17.6.82.82,0,0,0,.37.62.75.75,0,0,0,.56.16,1.25,1.25,0,0,0,.62-.33l.22-.19a.9.9,0,0,1,.32-.21.26.26,0,0,1,.22.05.26.26,0,0,1,.11.24.71.71,0,0,1-.16.35,1.82,1.82,0,0,1-.36.36,2.77,2.77,0,0,1-.5.3l.51.37a3.44,3.44,0,0,0,.45-.35l.2-.2.27.2.33-.45-.27-.2a1.11,1.11,0,0,0,.17-.59.87.87,0,0,0-.41-.65A.75.75,0,0,0,77.48,43.4Z" transform="translate(-3.23 -12.73)"/><rect class="cls-19" x="81.94" y="56.34" width="2.64" height="0.67"/><rect class="cls-20" x="59.22" y="56.34" width="2.64" height="0.67"/><path class="cls-21" d="M60.11,69.74v1.42H45.32a1.19,1.19,0,0,1-1.24-1.28v-.14Z" transform="translate(-3.23 -12.73)"/><path class="cls-22" d="M60.11,69.74v1.42H89.92a1.19,1.19,0,0,0,1.24-1.28v-.14Z" transform="translate(-3.23 -12.73)"/><path class="cls-4" d="M59.61,69.07h31l3.88-19.91h-31Z" transform="translate(-3.23 -12.73)"/><polygon class="cls-21" points="56.38 56.34 54.82 56.34 58.41 37.47 60.25 36.44 56.38 56.34"/><path class="cls-23" d="M73.75,28.2S66,22.92,61,21.1a24.92,24.92,0,0,1,3.54-6.54s8.6,5.73,12.64,9.22Z" transform="translate(-3.23 -12.73)"/><path class="cls-24" d="M71.94,27.93s-6.81-6.48-11.44-9.1A24.93,24.93,0,0,1,65.07,13S72.61,20,76,24.12Z" transform="translate(-3.23 -12.73)"/><path class="cls-25" d="M72.1,28.46S65.93,21.33,61.47,18.3a27.94,27.94,0,0,1,5.62-5.57s6.86,7.78,9.84,12.21Z" transform="translate(-3.23 -12.73)"/><path class="cls-23" d="M64,19a61.23,61.23,0,0,1,7.09,6.79,1.58,1.58,0,0,1,2,.71L75,25s-1.11-1.07-.36-1.88c0,0-5.57-6.79-6.85-7.86,0,0-.84.61-1.82-.47,0,0-1.66,1.54-2.2,2.17A1.41,1.41,0,0,1,64,19Z" transform="translate(-3.23 -12.73)"/><circle class="cls-24" cx="69.65" cy="20.94" r="1.76" transform="translate(-4.88 22.55) rotate(-28.1)"/><path class="cls-25" d="M81.42,32.25s4-8.53,5-13.84a28,28,0,0,1,7.37,2.88s-4.33,9.42-7.18,13.94Z" transform="translate(-3.23 -12.73)"/><path class="cls-23" d="M86.78,21a61.22,61.22,0,0,1-3.33,9.23,1.58,1.58,0,0,1,.17,2.13l2.13,1.13s.53-1.44,1.58-1.09c0,0,4-7.84,4.41-9.44,0,0-.9-.52-.31-1.85,0,0-2.08-.89-2.87-1.13A1.41,1.41,0,0,1,86.78,21Z" transform="translate(-3.23 -12.73)"/><circle class="cls-24" cx="87.3" cy="26.97" r="1.76" transform="translate(9.08 66.44) rotate(-52.01)"/></svg>