<svg id="Layer_1" data-name="Layer 1" xmlns="http://www.w3.org/2000/svg" viewBox="0 0 75.55 74.54"><defs><style>.cls-1{fill:#6f7e07;}.cls-2{fill:#ef9f5e;}.cls-3{fill:#fcb87a;}.cls-4{fill:#ff8b00;}.cls-5{fill:#ffc700;}.cls-6{fill:#fff039;}.cls-7{fill:#ffd8b8;}.cls-8{fill:#88e5e1;}.cls-9{fill:#333;}.cls-10{fill:#fcdc00;}</style></defs><title>cgl</title><path class="cls-1" d="M79.2,76.43V65.78c.79-12-11.31-17-11.31-17H62.38s-12.09,5-11.31,17V76.43l-.92,3.16h30Z" transform="translate(-12.22 -12.73)"/><path class="cls-2" d="M65,25.9l-.86,6.19c-.44,3.14-4.91,2.79-4.72.07L59.74,27Z" transform="translate(-12.22 -12.73)"/><path class="cls-3" d="M28.33,30.9s13.55-12.16,17-12.16l16.12,1.14-2,5.15L43,27.61,32.56,43.06Z" transform="translate(-12.22 -12.73)"/><path class="cls-4" d="M70.54,21.82a9.09,9.09,0,1,1-9.09-9.09A9.09,9.09,0,0,1,70.54,21.82Z" transform="translate(-12.22 -12.73)"/><circle class="cls-5" cx="49.23" cy="9.09" r="6.63"/><path class="cls-6" d="M63.89,21.8a3.16,3.16,0,0,0-1.58-.68L61.57,21a1.93,1.93,0,0,1-.72-.26.49.49,0,0,1-.2-.42.57.57,0,0,1,.29-.53,1.89,1.89,0,0,1,.91-.17,4.24,4.24,0,0,1,1,.12,6.14,6.14,0,0,1,1.07.37V18.69a10.36,10.36,0,0,0-1.2-.25l-.35,0v-.78H61.08v.76a2.47,2.47,0,0,0-1.34.51,1.88,1.88,0,0,0-.64,1.53,1.72,1.72,0,0,0,.46,1.26,2.86,2.86,0,0,0,1.46.68l.67.15a2.07,2.07,0,0,1,.81.3.65.65,0,0,1-.1,1,1.63,1.63,0,0,1-.86.19,4.14,4.14,0,0,1-1.15-.17,6.47,6.47,0,0,1-1.24-.51V24.8a7.86,7.86,0,0,0,1.28.36c.22,0,.43.07.65.09V26h1.29v-.77a2.54,2.54,0,0,0,1.33-.5,2,2,0,0,0,.65-1.64A1.72,1.72,0,0,0,63.89,21.8Z" transform="translate(-12.22 -12.73)"/><path class="cls-2" d="M46.19,40C49,42,46,46.19,43.26,44.26l-3.93-2.73c-2.79-1.94.14-6.17,2.94-4.22Z" transform="translate(-12.22 -12.73)"/><path class="cls-2" d="M50.75,37c2.8,1.95-.15,6.16-2.94,4.22l-3.93-2.73c-2.79-1.94.14-6.17,2.93-4.22Z" transform="translate(-12.22 -12.73)"/><path class="cls-2" d="M54.75,33.36c2.8,1.95-.15,6.16-2.93,4.22l-3.93-2.73c-2.79-1.94.14-6.17,2.94-4.22Z" transform="translate(-12.22 -12.73)"/><polygon class="cls-2" points="41 12.94 30.54 16.23 29.66 12.94 41 12.94"/><path class="cls-3" d="M43.14,27.33,32.56,42.49s1.06,2.42,1.25,2.13,13.73-3,17-9L60.5,30l3.66-2.53c3.08-2.31.92-6-3.27-4.57L50.77,26.28Z" transform="translate(-12.22 -12.73)"/><path class="cls-7" d="M61.18,28.19a4.24,4.24,0,0,0,1.62-.4c1.66-.77,2.54-2.37,2-3.58s-2.35-1.57-4-.81a4.25,4.25,0,0,0-1.36,1Z" transform="translate(-12.22 -12.73)"/><rect class="cls-8" x="25.84" y="29.06" width="8.88" height="17.75" transform="translate(-26.49 5.94) rotate(-28.01)"/><rect class="cls-9" x="16.63" y="29.31" width="16.63" height="22.93" transform="translate(-28.45 3.76) rotate(-28.01)"/><circle class="cls-2" cx="24.28" cy="32.82" r="1.54" transform="translate(-24.8 2.52) rotate(-28.01)"/><path class="cls-2" d="M66.49,78.18l14.39-6.27C86.27,69.35,87,73.05,83,75.2c-4.43,2.37-13.13,6.09-13.13,6.09l-3.4-.91Z" transform="translate(-12.22 -12.73)"/><rect class="cls-9" x="50.15" y="34.12" width="5.26" height="1.97"/><path class="cls-1" d="M65,40.15c-2.1-1.18-5.65-.66-5.65-.66a14.35,14.35,0,0,0,3,7.36h5.26a14.35,14.35,0,0,0,3-7.36S67.11,39,65,40.15Z" transform="translate(-12.22 -12.73)"/><path class="cls-10" d="M68.22,57.77a5.72,5.72,0,0,0-.62,0,4.57,4.57,0,0,0,.62-2.38,5.85,5.85,0,0,0-1.58.23,4.58,4.58,0,0,0-1.25-2.12,4.58,4.58,0,0,0-1.25,2.12,5.85,5.85,0,0,0-1.58-.23,4.58,4.58,0,0,0,.62,2.38,5.72,5.72,0,0,0-.62,0,4.58,4.58,0,0,0,.62,2.38,5.81,5.81,0,0,0-.62,0,4.58,4.58,0,0,0,.62,2.38,5.8,5.8,0,0,0-.62,0,4.58,4.58,0,0,0,.62,2.38,5.8,5.8,0,0,0-.62,0,4.58,4.58,0,0,0,.62,2.38,5.69,5.69,0,0,0-.62,0,4.24,4.24,0,0,0,.75,2.52c.77.77,1.54.74,2,.25l0,0,0,0c.49.49,1.26.51,2-.25a4.24,4.24,0,0,0,.75-2.52,5.69,5.69,0,0,0-.62,0,4.57,4.57,0,0,0,.62-2.38,5.8,5.8,0,0,0-.62,0,4.57,4.57,0,0,0,.62-2.38,5.8,5.8,0,0,0-.62,0,4.57,4.57,0,0,0,.62-2.38,5.81,5.81,0,0,0-.62,0A4.58,4.58,0,0,0,68.22,57.77Z" transform="translate(-12.22 -12.73)"/><path class="cls-3" d="M86,76.38l-1.23.69a203.73,203.73,0,0,1-18.31,9.34c-5-.6-24.32-4-24.79-4H39.25V71l3,0c7.22-2.79,8.4-5.51,30.73-1.78,3.29.55,3.93,5.31-3,5.58l-10.76.41S65.84,77.9,68,78.72l15.84-5.65c2.46-1.14,3.74-.46,3.88.64A2.92,2.92,0,0,1,86,76.38Z" transform="translate(-12.22 -12.73)"/><rect class="cls-8" x="21.04" y="55.51" width="8.31" height="16.61"/><rect class="cls-9" x="11.76" y="53.08" width="15.57" height="21.46"/><path class="cls-7" d="M69.95,70.07v3.32c1.78.88,4.43-.32,4.43-1.66S71.73,69.19,69.95,70.07Z" transform="translate(-12.22 -12.73)"/><path class="cls-7" d="M86,76.38l-1.23.69a1.66,1.66,0,0,1,.62-2L87.06,74a1.63,1.63,0,0,1,.7-.26A2.92,2.92,0,0,1,86,76.38Z" transform="translate(-12.22 -12.73)"/><circle class="cls-2" cx="22.48" cy="56.95" r="1.44"/></svg>