<svg id="Layer_1" data-name="Layer 1" xmlns="http://www.w3.org/2000/svg" viewBox="0 0 93 62.57"><defs><style>.cls-1{fill:#fadb00;}.cls-2{fill:#f8b716;}.cls-3{fill:#303030;}.cls-4{fill:#565555;}.cls-5{fill:#474646;}.cls-6{fill:#18b55f;}.cls-7{fill:#029340;}.cls-8{fill:#26c469;}.cls-9{fill:#ffce00;}.cls-10{fill:#fff91a;}.cls-11{fill:#ffb000;}</style></defs><title>sl</title><path class="cls-1" d="M83.8,31.76V53.43H80.16a14.73,14.73,0,0,1,2.12-6.29V31.76Z" transform="translate(-3.5 -18.71)"/><path class="cls-2" d="M87.43,53.43H83.8V31.76h1.52V47.14a14.75,14.75,0,0,1,2.12,6.29Z" transform="translate(-3.5 -18.71)"/><rect class="cls-3" x="29.08" y="16.38" width="45.13" height="18.34"/><polygon class="cls-4" points="51.65 0 51.65 26.08 10.3 13.04 51.65 0"/><polygon class="cls-5" points="93 13.04 51.65 26.09 51.65 0 93 13.04"/><rect class="cls-5" x="33.03" y="34.72" width="37.24" height="4.75"/><rect class="cls-6" y="38.58" width="36.64" height="17.87" rx="0.53" ry="0.53"/><rect class="cls-7" y="35.72" width="36.64" height="17.87" rx="0.53" ry="0.53"/><rect class="cls-6" y="32.86" width="36.64" height="17.87" rx="0.53" ry="0.53"/><rect class="cls-7" y="30.01" width="36.64" height="17.87" rx="0.53" ry="0.53"/><path class="cls-8" d="M39.62,45.86H4a.53.53,0,0,0-.53.53V63.21a.53.53,0,0,0,.53.53H39.62a.53.53,0,0,0,.53-.53V46.39A.53.53,0,0,0,39.62,45.86Z" transform="translate(-3.5 -18.71)"/><path class="cls-7" d="M15.31,59.61H7.63V50h7.69A8.18,8.18,0,0,1,17,48.26H5.9V61.33H17A8.19,8.19,0,0,1,15.31,59.61ZM26.6,48.26A8.12,8.12,0,0,1,28.33,50H36v9.63H28.33a8.14,8.14,0,0,1-1.73,1.72H37.74V48.26Z" transform="translate(-3.5 -18.71)"/><circle class="cls-7" cx="18.32" cy="36.09" r="6.81"/><path class="cls-8" d="M24.58,56.92a.86.86,0,0,0-.61-.65c-.54-.15-1.33-.37-1.4-.37v-.65a2.4,2.4,0,0,0,1.52-1.81.31.31,0,0,0,.27-.31v-.31a.31.31,0,0,0-.26-.31c-.47-3-4.06-3-4.54,0a.31.31,0,0,0-.26.31v.31a.31.31,0,0,0,.27.31,2.4,2.4,0,0,0,1.52,1.81v.65c-.08,0-.87.22-1.4.37a.86.86,0,0,0-.61.65l-.25,2.42h6Z" transform="translate(-3.5 -18.71)"/><path class="cls-9" d="M40.15,77.72v3.57h5.21a.8.8,0,0,0,.81-.8V77.77a.28.28,0,0,0,0-.05Z" transform="translate(-3.5 -18.71)"/><path class="cls-10" d="M34.13,77.72h12a.8.8,0,0,0-.8-.75H34.93A.8.8,0,0,0,34.13,77.72Z" transform="translate(-3.5 -18.71)"/><path class="cls-11" d="M34.12,77.77v2.71a.8.8,0,0,0,.81.8h5.21V77.72h-6A.28.28,0,0,0,34.12,77.77Z" transform="translate(-3.5 -18.71)"/><path class="cls-9" d="M40.15,73.4V77h5.21a.8.8,0,0,0,.81-.8V73.45a.29.29,0,0,0,0-.05Z" transform="translate(-3.5 -18.71)"/><path class="cls-10" d="M34.13,73.4h12a.8.8,0,0,0-.8-.75H34.93A.8.8,0,0,0,34.13,73.4Z" transform="translate(-3.5 -18.71)"/><path class="cls-11" d="M34.12,73.45v2.71a.81.81,0,0,0,.81.8h5.21V73.4h-6A.29.29,0,0,0,34.12,73.45Z" transform="translate(-3.5 -18.71)"/><path class="cls-9" d="M40.15,69.07v3.57h5.21a.8.8,0,0,0,.81-.81V69.12a.28.28,0,0,0,0,0Z" transform="translate(-3.5 -18.71)"/><path class="cls-10" d="M34.13,69.07h12a.8.8,0,0,0-.8-.75H34.93A.8.8,0,0,0,34.13,69.07Z" transform="translate(-3.5 -18.71)"/><path class="cls-11" d="M34.12,69.12v2.71a.81.81,0,0,0,.81.81h5.21V69.07h-6A.28.28,0,0,0,34.12,69.12Z" transform="translate(-3.5 -18.71)"/><path class="cls-9" d="M40.15,64.75v3.57h5.21a.8.8,0,0,0,.81-.8V64.8a.28.28,0,0,0,0,0Z" transform="translate(-3.5 -18.71)"/><path class="cls-10" d="M34.13,64.75h12a.8.8,0,0,0-.8-.76H34.93A.8.8,0,0,0,34.13,64.75Z" transform="translate(-3.5 -18.71)"/><path class="cls-11" d="M34.12,64.8v2.71a.81.81,0,0,0,.81.8h5.21V64.75h-6A.28.28,0,0,0,34.12,64.8Z" transform="translate(-3.5 -18.71)"/><path class="cls-9" d="M53.79,77.72v3.57H59a.8.8,0,0,0,.81-.8V77.77a.27.27,0,0,0,0-.05Z" transform="translate(-3.5 -18.71)"/><path class="cls-10" d="M47.77,77.72h12A.8.8,0,0,0,59,77H48.58A.8.8,0,0,0,47.77,77.72Z" transform="translate(-3.5 -18.71)"/><path class="cls-11" d="M47.77,77.77v2.71a.81.81,0,0,0,.81.8h5.21V77.72h-6A.26.26,0,0,0,47.77,77.77Z" transform="translate(-3.5 -18.71)"/><path class="cls-9" d="M53.79,73.4V77H59a.8.8,0,0,0,.81-.8V73.45a.27.27,0,0,0,0-.05Z" transform="translate(-3.5 -18.71)"/><path class="cls-10" d="M47.77,73.4h12a.8.8,0,0,0-.8-.75H48.58A.8.8,0,0,0,47.77,73.4Z" transform="translate(-3.5 -18.71)"/><path class="cls-11" d="M47.77,73.45v2.71a.81.81,0,0,0,.81.8h5.21V73.4h-6A.27.27,0,0,0,47.77,73.45Z" transform="translate(-3.5 -18.71)"/><path class="cls-9" d="M53.79,69.07v3.57H59a.8.8,0,0,0,.81-.81V69.12a.27.27,0,0,0,0,0Z" transform="translate(-3.5 -18.71)"/><path class="cls-10" d="M47.77,69.07h12a.8.8,0,0,0-.8-.75H48.58A.8.8,0,0,0,47.77,69.07Z" transform="translate(-3.5 -18.71)"/><path class="cls-11" d="M47.77,69.12v2.71a.81.81,0,0,0,.81.81h5.21V69.07h-6A.26.26,0,0,0,47.77,69.12Z" transform="translate(-3.5 -18.71)"/></svg>