<svg id="Layer_1" data-name="Layer 1" xmlns="http://www.w3.org/2000/svg" viewBox="0 0 59.67 73.35"><defs><style>.cls-1{fill:#9ee4ef;}.cls-2{fill:#4f4d4f;}.cls-3{fill:#ffaf57;}.cls-4{fill:#3d3d3d;}.cls-5{fill:#1b1b1b;}.cls-6{fill:#fbd562;}.cls-7{fill:#ffcc29;}.cls-8{fill:#ffc278;}.cls-9{fill:#ffd19f;}.cls-10{fill:#25bdca;}</style></defs><title>wol</title><path class="cls-1" d="M59.14,13.32H21a.85.85,0,0,0-.85.84v47.9a.85.85,0,0,0,.85.85H60V14.17A.85.85,0,0,0,59.14,13.32Z" transform="translate(-20.17 -13.32)"/><rect class="cls-2" x="9.1" y="3.39" width="22.54" height="1.78"/><rect class="cls-2" x="9.1" y="9.44" width="22.54" height="1.78"/><rect class="cls-2" x="9.1" y="15.48" width="22.54" height="1.78"/><rect class="cls-2" x="9.1" y="21.53" width="22.54" height="1.78"/><rect class="cls-2" x="9.1" y="27.57" width="22.54" height="1.78"/><path class="cls-3" d="M59.88,49.09,46.8,53.79c-.48-.18-1.38-.75-.85-2.27S55.31,48,55.31,48Z" transform="translate(-20.17 -13.32)"/><path class="cls-3" d="M55.36,57.34A20.84,20.84,0,0,1,60,56.76c1.14.2,3.38,2.63,3.38,2.63l1.06-1.07L62,54.38l-4.56-1.59-4.52,1.77Z" transform="translate(-20.17 -13.32)"/><path class="cls-4" d="M74.66,44.46,46,54.55l-.34-1C51.26,49,64.25,43.25,74.66,44.46Z" transform="translate(-20.17 -13.32)"/><path class="cls-5" d="M46.35,55.53l-.35-1,28.66-10.1C67.3,51.92,53.58,55.59,46.35,55.53Z" transform="translate(-20.17 -13.32)"/><path class="cls-6" d="M45.66,53.57l-3.53.67a20.93,20.93,0,0,1-3,2.74L46,54.55Z" transform="translate(-20.17 -13.32)"/><path class="cls-7" d="M46.35,55.53l-3.16,1.69A21,21,0,0,0,39.11,57L46,54.55Z" transform="translate(-20.17 -13.32)"/><path class="cls-8" d="M73.24,70.78l-.88-9.4a10.46,10.46,0,0,0-1.93-5.13l-3.23-4.48A2.86,2.86,0,0,0,64.93,51l-6,2.31L62,54.38c4,6.55-1.29,8.94-3.52,6.23-2.09-2.54-5.12-6.69-6.49-7.2a2.17,2.17,0,0,0-2.78,2.18c-.11,1.73,3.29,6.47,6.15,12.23l7.87,8.44,3.38,3.67,8.73-5.57Z" transform="translate(-20.17 -13.32)"/><path class="cls-9" d="M50.73,54.2c1-.57,2.11.41,3,2.5l-2.35,1.5C49.62,56.3,49.53,54.87,50.73,54.2Z" transform="translate(-20.17 -13.32)"/><rect class="cls-10" x="60.67" y="73.97" width="18.03" height="9.35" transform="translate(-46.81 23.34) rotate(-24.91)"/></svg>